/* XPM */
static char *ground1684164344[] = {
/* columns rows colors chars-per-pixel */
"32 32 4 1 ",
"  c #9C5A3C",
". c #3EE06C",
"X c #A8E61D",
"o c #FFF200",
/* pixels */
"..X.............................",
"..X.........................X...",
"..........X................XX...",
"....... ..X...o....X.X.....X....",
"..........XX.......X.X..........",
"..oX............XXXX.X.o...o....",
"...X..................X..X..X...",
"...X..X...............X.....X...",
"......X......X.........XX...X...",
".....X...X...X. .......X....X...",
".....X...X................ ..X..",
".....X..XoX.......X..o...X...X.o",
".....X..X. .......X.....XX...X..",
"..........X..............X......",
".......o..X....X...X.....X......",
"........oXX.XX..X..XX....XX.....",
"........o....X..o.X..XX.......X.",
"................oX....X....X....",
"...X......X......o....X....X....",
".......X..X................X....",
".......X........X....X........o.",
".......X..X....X.....X..........",
"...X.......o..X.....XX.X.X...X..",
"....X......o..X ...XX...X.......",
"...........o....X...X...........",
".................X.....oo....X..",
"..................X.............",
"......X.....X.........X.........",
"......X...............X...X.....",
"...X .................X... ...X.",
"............................X.X.",
"................................"
};
