/* XPM */
static char *wall1684164345[] = {
/* columns rows colors chars-per-pixel */
"32 32 2 1 ",
"  c #9C5A3C",
". c white",
/* pixels */
"             .             .    ",
"             .             .    ",
"             .             .    ",
"................................",
"    .              .            ",
"    .              .            ",
"    .              .            ",
"................................",
"           .               .    ",
"           .               .    ",
"           .               .    ",
"................................",
"    .              .            ",
"    .              .            ",
"    .              .            ",
"................................",
"           .               .    ",
"           .               .    ",
"           .               .    ",
"................................",
"    .              .            ",
"    .              .            ",
"    .              .            ",
"................................",
"           .               .    ",
"           .               .    ",
"           .               .    ",
"................................",
"    .              .            ",
"    .              .            ",
"    .              .            ",
"................................"
};
